<svg width="250" height="100" viewBox="0 0 250 100" fill="none" xmlns="http://www.w3.org/2000/svg">
  <defs>
    <linearGradient id="evolucaoGradient" x1="0%" y1="0%" x2="100%" y2="0%">
      <stop offset="0%" style="stop-color:#2563EB;stop-opacity:1" />
      <stop offset="100%" style="stop-color:#06B6D4;stop-opacity:1" />
    </linearGradient>
  </defs>
  
  <!-- Family figures centered -->
  <!-- Baby -->
  <circle cx="70" cy="25" r="4" fill="#F59E0B"/>
  <rect x="67" y="28" width="6" height="8" rx="3" fill="#10B981"/>
  
  <!-- Child -->
  <circle cx="85" cy="20" r="5" fill="#EF4444"/>
  <rect x="81" y="24" width="8" height="12" rx="4" fill="#8B5CF6"/>
  
  <!-- Teen girl -->
  <circle cx="100" cy="15" r="5" fill="#EC4899"/>
  <rect x="96" y="19" width="8" height="14" rx="4" fill="#F97316"/>
  
  <!-- Teen boy -->
  <circle cx="115" cy="10" r="6" fill="#3B82F6"/>
  <rect x="110" y="15" width="10" height="18" rx="5" fill="#DC2626"/>
  
  <!-- Adult woman -->
  <circle cx="130" cy="8" r="6" fill="#8B5CF6"/>
  <rect x="125" y="13" width="10" height="20" rx="5" fill="#059669"/>
  
  <!-- Adult man -->
  <circle cx="145" cy="5" r="7" fill="#6B7280"/>
  <rect x="139" y="11" width="12" height="22" rx="6" fill="#2563EB"/>
  
  <!-- Elderly person -->
  <circle cx="160" cy="10" r="6" fill="#9CA3AF"/>
  <rect x="155" y="15" width="10" height="18" rx="5" fill="#7C3AED"/>
  
  <!-- Main text "evolução" centered -->
  <text x="125" y="55" font-family="Arial, sans-serif" font-size="20" font-weight="bold" fill="url(#evolucaoGradient)" text-anchor="middle">evolução</text>
  
  <!-- Subtitle centered -->
  <text x="125" y="70" font-family="Arial, sans-serif" font-size="9" fill="#6B7280" text-anchor="middle">Centro de Integração Multidisciplinar</text>
</svg>