<svg width="250" height="100" viewBox="0 0 250 100" fill="none" xmlns="http://www.w3.org/2000/svg">
  <defs>
    <linearGradient id="evolucaoGradient" x1="0%" y1="0%" x2="100%" y2="0%">
      <stop offset="0%" style="stop-color:#2563EB;stop-opacity:1" />
      <stop offset="100%" style="stop-color:#06B6D4;stop-opacity:1" />
    </linearGradient>
  </defs>
  
  <!-- Family figures -->
  <!-- Baby -->
  <circle cx="15" cy="35" r="4" fill="#F59E0B"/>
  <rect x="12" y="38" width="6" height="8" rx="3" fill="#10B981"/>
  
  <!-- Child -->
  <circle cx="30" cy="30" r="5" fill="#EF4444"/>
  <rect x="26" y="34" width="8" height="12" rx="4" fill="#8B5CF6"/>
  
  <!-- Teen girl -->
  <circle cx="45" cy="25" r="5" fill="#EC4899"/>
  <rect x="41" y="29" width="8" height="14" rx="4" fill="#F97316"/>
  
  <!-- Teen boy -->
  <circle cx="60" cy="20" r="6" fill="#3B82F6"/>
  <rect x="55" y="25" width="10" height="18" rx="5" fill="#DC2626"/>
  
  <!-- Adult woman -->
  <circle cx="75" cy="18" r="6" fill="#8B5CF6"/>
  <rect x="70" y="23" width="10" height="20" rx="5" fill="#059669"/>
  
  <!-- Adult man -->
  <circle cx="90" cy="15" r="7" fill="#6B7280"/>
  <rect x="84" y="21" width="12" height="22" rx="6" fill="#2563EB"/>
  
  <!-- Elderly person -->
  <circle cx="105" cy="20" r="6" fill="#9CA3AF"/>
  <rect x="100" y="25" width="10" height="18" rx="5" fill="#7C3AED"/>
  
  <!-- Main text "evolução" -->
  <text x="15" y="70" font-family="Arial, sans-serif" font-size="24" font-weight="bold" fill="url(#evolucaoGradient)">evolução</text>
  
  <!-- Subtitle -->
  <text x="15" y="85" font-family="Arial, sans-serif" font-size="10" fill="#6B7280">Centro de Integração Multidisciplinar</text>
</svg>