<svg width="200" height="120" viewBox="0 0 200 120" fill="none" xmlns="http://www.w3.org/2000/svg">
  <defs>
    <linearGradient id="blueGradient" x1="0%" y1="0%" x2="100%" y2="0%">
      <stop offset="0%" style="stop-color:#3B82F6;stop-opacity:1" />
      <stop offset="100%" style="stop-color:#1E40AF;stop-opacity:1" />
    </linearGradient>
  </defs>
  
  <!-- Head profile outline -->
  <path d="M15 60 C15 30, 35 15, 55 15 C75 15, 85 25, 85 40 C85 50, 80 55, 75 58 C80 62, 85 68, 85 75 C85 85, 80 90, 75 92 C70 95, 60 95, 50 95 C40 95, 30 90, 25 85 C20 80, 15 70, 15 60 Z" 
        stroke="#1E40AF" stroke-width="2" fill="none"/>
  
  <!-- Brain geometric pattern inside head -->
  <g stroke="#3B82F6" stroke-width="1.5" fill="none">
    <!-- Brain outline -->
    <path d="M25 45 C25 35, 35 30, 45 30 C55 30, 65 35, 70 40 C70 50, 65 55, 60 58 C65 62, 70 68, 70 75 C70 80, 65 82, 60 82 C55 82, 50 80, 45 78 C40 76, 35 72, 30 68 C25 62, 25 55, 25 45 Z"/>
    
    <!-- Geometric network lines -->
    <line x1="35" y1="40" x2="45" y2="35"/>
    <line x1="45" y1="35" x2="55" y2="40"/>
    <line x1="55" y1="40" x2="60" y2="45"/>
    <line x1="35" y1="40" x2="40" y2="50"/>
    <line x1="40" y1="50" x2="50" y2="48"/>
    <line x1="50" y1="48" x2="60" y2="52"/>
    <line x1="40" y1="50" x2="45" y2="60"/>
    <line x1="45" y1="60" x2="55" y2="58"/>
    <line x1="55" y1="58" x2="60" y2="65"/>
    
    <!-- Network nodes -->
    <circle cx="35" cy="40" r="2" fill="#3B82F6"/>
    <circle cx="45" cy="35" r="2" fill="#3B82F6"/>
    <circle cx="55" cy="40" r="2" fill="#3B82F6"/>
    <circle cx="60" cy="45" r="2" fill="#3B82F6"/>
    <circle cx="40" cy="50" r="2" fill="#3B82F6"/>
    <circle cx="50" cy="48" r="2" fill="#3B82F6"/>
    <circle cx="60" cy="52" r="2" fill="#3B82F6"/>
    <circle cx="45" cy="60" r="2" fill="#3B82F6"/>
    <circle cx="55" cy="58" r="2" fill="#3B82F6"/>
    <circle cx="60" cy="65" r="2" fill="#3B82F6"/>
  </g>
  
  <!-- "inerp" text -->
  <text x="100" y="50" font-family="Arial, sans-serif" font-size="32" font-weight="bold" fill="url(#blueGradient)">inerp</text>
  
  <!-- Subtitle lines -->
  <text x="100" y="70" font-family="Arial, sans-serif" font-size="10" font-weight="bold" fill="#1E40AF">INSTITUTO DE NEUROLOGIA</text>
  <text x="100" y="85" font-family="Arial, sans-serif" font-size="10" font-weight="bold" fill="#1E40AF">DE RIBEIRÃO PRETO</text>
</svg>