<svg width="200" height="80" viewBox="0 0 200 80" fill="none" xmlns="http://www.w3.org/2000/svg">
  <defs>
    <linearGradient id="toothGradient" x1="0%" y1="0%" x2="100%" y2="100%">
      <stop offset="0%" style="stop-color:#7C3AED;stop-opacity:1" />
      <stop offset="100%" style="stop-color:#F97316;stop-opacity:1" />
    </linearGradient>
    <linearGradient id="textGradient" x1="0%" y1="0%" x2="100%" y2="0%">
      <stop offset="0%" style="stop-color:#374151;stop-opacity:1" />
      <stop offset="100%" style="stop-color:#6B7280;stop-opacity:1" />
    </linearGradient>
  </defs>
  
  <!-- Tooth Icon -->
  <path d="M20 15C20 10 25 5 35 5C45 5 50 10 50 15C50 20 48 25 45 30C42 35 38 40 35 45C32 40 28 35 25 30C22 25 20 20 20 15Z" fill="url(#toothGradient)"/>
  
  <!-- Root lines -->
  <path d="M30 45C30 50 32 55 35 60C38 55 40 50 40 45" stroke="url(#toothGradient)" stroke-width="2" fill="none"/>
  
  <!-- Text -->
  <text x="65" y="25" font-family="Arial, sans-serif" font-size="16" font-weight="bold" fill="url(#textGradient)">MAGIA DO</text>
  <text x="65" y="45" font-family="Arial, sans-serif" font-size="16" font-weight="bold" fill="url(#textGradient)">SORRISO</text>
  
  <!-- Decorative wave -->
  <path d="M65 55C75 50 85 55 95 50C105 55 115 50 125 55" stroke="url(#toothGradient)" stroke-width="2" fill="none"/>
</svg>