<svg width="280" height="120" viewBox="0 0 280 120" fill="none" xmlns="http://www.w3.org/2000/svg">
  <defs>
    <linearGradient id="clinicaGradient" x1="0%" y1="0%" x2="100%" y2="0%">
      <stop offset="0%" style="stop-color:#3B82F6;stop-opacity:1" />
      <stop offset="100%" style="stop-color:#1E40AF;stop-opacity:1" />
    </linearGradient>
  </defs>
  
  <!-- "CLÍNICA" text -->
  <text x="140" y="20" font-family="Arial, sans-serif" font-size="16" font-weight="normal" fill="url(#clinicaGradient)" text-anchor="middle">CLÍNICA</text>
  
  <!-- "REABILITAR" colorful letters -->
  <text x="40" y="45" font-family="Arial, sans-serif" font-size="20" font-weight="bold" fill="#3B82F6">R</text>
  <text x="55" y="45" font-family="Arial, sans-serif" font-size="20" font-weight="bold" fill="#EF4444">E</text>
  <text x="70" y="45" font-family="Arial, sans-serif" font-size="20" font-weight="bold" fill="#10B981">A</text>
  <text x="85" y="45" font-family="Arial, sans-serif" font-size="20" font-weight="bold" fill="#F59E0B">B</text>
  <text x="100" y="45" font-family="Arial, sans-serif" font-size="20" font-weight="bold" fill="#3B82F6">I</text>
  <text x="110" y="45" font-family="Arial, sans-serif" font-size="20" font-weight="bold" fill="#8B5CF6">L</text>
  <text x="125" y="45" font-family="Arial, sans-serif" font-size="20" font-weight="bold" fill="#06B6D4">I</text>
  <text x="135" y="45" font-family="Arial, sans-serif" font-size="20" font-weight="bold" fill="#EC4899">T</text>
  <text x="150" y="45" font-family="Arial, sans-serif" font-size="20" font-weight="bold" fill="#10B981">A</text>
  <text x="165" y="45" font-family="Arial, sans-serif" font-size="20" font-weight="bold" fill="#F97316">R</text>
  
  <!-- "NEUROPED" with star and smiley -->
  <text x="50" y="75" font-family="Arial, sans-serif" font-size="28" font-weight="bold" fill="#1E40AF">NEURO</text>
  
  <!-- Star icon -->
  <polygon points="150,65 155,55 160,65 170,65 162,72 165,82 155,77 145,82 148,72 140,65" fill="white" stroke="#1E40AF" stroke-width="2"/>
  
  <!-- "PED" -->
  <text x="175" y="75" font-family="Arial, sans-serif" font-size="28" font-weight="bold" fill="#1E40AF">PED</text>
  
  <!-- Smiley face -->
  <circle cx="235" cy="70" r="12" fill="white" stroke="#1E40AF" stroke-width="2"/>
  <circle cx="230" cy="66" r="2" fill="#1E40AF"/>
  <circle cx="240" cy="66" r="2" fill="#1E40AF"/>
  <path d="M228 74 Q235 78 242 74" stroke="#1E40AF" stroke-width="2" fill="none"/>
  
  <!-- "Fisioterapia Pediátrica" -->
  <text x="140" y="95" font-family="Arial, sans-serif" font-size="12" fill="#3B82F6" text-anchor="middle">Fisioterapia Pediátrica</text>
</svg>